<svg width="626" height="200" viewBox="0 0 626 200" fill="none" xmlns="http://www.w3.org/2000/svg">
<rect width="200" height="200" rx="30" fill="#2B6CEE"/>
<path d="M260.321 136V63.2727H309.327V75.9503H275.697V93.2798H306.805V105.957H275.697V123.322H309.469V136H260.321ZM336.821 137.03C333.341 137.03 330.24 136.426 327.517 135.219C324.795 133.988 322.641 132.177 321.054 129.786C319.492 127.371 318.711 124.364 318.711 120.766C318.711 117.735 319.267 115.19 320.38 113.131C321.492 111.071 323.007 109.414 324.925 108.159C326.843 106.904 329.021 105.957 331.459 105.318C333.921 104.679 336.502 104.229 339.201 103.969C342.373 103.637 344.93 103.33 346.871 103.045C348.812 102.738 350.221 102.288 351.097 101.696C351.973 101.104 352.411 100.228 352.411 99.0682V98.8551C352.411 96.6061 351.701 94.866 350.28 93.6349C348.883 92.4039 346.895 91.7884 344.314 91.7884C341.592 91.7884 339.426 92.392 337.816 93.5994C336.206 94.7831 335.141 96.2746 334.62 98.0739L320.628 96.9375C321.338 93.6231 322.735 90.7585 324.819 88.3438C326.902 85.9053 329.589 84.035 332.88 82.733C336.194 81.4072 340.029 80.7443 344.385 80.7443C347.416 80.7443 350.316 81.0994 353.086 81.8097C355.879 82.5199 358.353 83.6207 360.507 85.1122C362.685 86.6037 364.402 88.5213 365.657 90.8651C366.911 93.1851 367.539 95.9669 367.539 99.2102V136H353.192V128.436H352.766C351.89 130.141 350.718 131.644 349.25 132.946C347.783 134.224 346.019 135.231 343.959 135.964C341.9 136.675 339.52 137.03 336.821 137.03ZM341.154 126.589C343.379 126.589 345.344 126.152 347.049 125.276C348.753 124.376 350.091 123.169 351.061 121.653C352.032 120.138 352.517 118.422 352.517 116.504V110.716C352.044 111.024 351.393 111.308 350.564 111.568C349.759 111.805 348.848 112.03 347.83 112.243C346.812 112.432 345.794 112.61 344.776 112.776C343.758 112.918 342.835 113.048 342.006 113.166C340.23 113.427 338.68 113.841 337.354 114.409C336.028 114.977 334.998 115.747 334.265 116.717C333.531 117.664 333.164 118.848 333.164 120.268C333.164 122.328 333.909 123.902 335.401 124.991C336.916 126.057 338.834 126.589 341.154 126.589ZM424.659 97.0085L410.809 97.8608C410.573 96.6771 410.064 95.6117 409.282 94.6648C408.501 93.6941 407.471 92.9247 406.193 92.3565C404.938 91.7647 403.435 91.4688 401.683 91.4688C399.339 91.4688 397.362 91.9659 395.752 92.9602C394.143 93.9309 393.338 95.233 393.338 96.8665C393.338 98.1686 393.859 99.2694 394.9 100.169C395.942 101.069 397.729 101.791 400.262 102.335L410.135 104.324C415.438 105.413 419.391 107.165 421.995 109.58C424.6 111.994 425.902 115.167 425.902 119.097C425.902 122.671 424.848 125.808 422.741 128.507C420.658 131.206 417.793 133.313 414.147 134.828C410.525 136.32 406.347 137.065 401.612 137.065C394.391 137.065 388.638 135.562 384.353 132.555C380.092 129.525 377.594 125.406 376.86 120.197L391.74 119.416C392.19 121.618 393.279 123.299 395.007 124.459C396.735 125.595 398.949 126.163 401.647 126.163C404.299 126.163 406.43 125.654 408.039 124.636C409.673 123.595 410.502 122.257 410.525 120.624C410.502 119.25 409.922 118.126 408.785 117.25C407.649 116.35 405.897 115.664 403.529 115.19L394.083 113.308C388.757 112.243 384.791 110.396 382.187 107.768C379.607 105.141 378.316 101.791 378.316 97.7188C378.316 94.215 379.263 91.1965 381.157 88.6634C383.075 86.1302 385.762 84.1771 389.218 82.804C392.699 81.4309 396.77 80.7443 401.434 80.7443C408.324 80.7443 413.745 82.2003 417.699 85.1122C421.676 88.0241 423.996 91.9896 424.659 97.0085ZM444.767 156.455C442.849 156.455 441.05 156.301 439.369 155.993C437.712 155.709 436.339 155.342 435.25 154.892L438.659 143.599C440.435 144.144 442.033 144.44 443.453 144.487C444.897 144.535 446.14 144.203 447.182 143.493C448.247 142.783 449.111 141.575 449.774 139.871L450.662 137.562L431.095 81.4545H447.004L458.297 121.511H458.865L470.264 81.4545H486.28L465.08 141.895C464.062 144.83 462.677 147.387 460.925 149.565C459.196 151.767 457.007 153.46 454.355 154.643C451.704 155.851 448.508 156.455 444.767 156.455ZM542.53 86.7812C542.033 85.053 541.334 83.526 540.435 82.2003C539.535 80.8509 538.434 79.7145 537.132 78.7912C535.854 77.8442 534.386 77.1222 532.729 76.625C531.095 76.1278 529.284 75.8793 527.295 75.8793C523.579 75.8793 520.312 76.8026 517.494 78.6491C514.701 80.4957 512.523 83.1828 510.96 86.7102C509.398 90.214 508.616 94.4991 508.616 99.5653C508.616 104.632 509.386 108.94 510.925 112.491C512.464 116.043 514.642 118.753 517.459 120.624C520.276 122.47 523.602 123.393 527.438 123.393C530.918 123.393 533.889 122.778 536.351 121.547C538.837 120.292 540.731 118.528 542.033 116.256C543.358 113.983 544.021 111.296 544.021 108.195L547.146 108.656H528.396V97.0795H558.83V106.241C558.83 112.634 557.48 118.126 554.781 122.719C552.082 127.288 548.366 130.815 543.631 133.301C538.896 135.763 533.474 136.994 527.366 136.994C520.548 136.994 514.559 135.491 509.398 132.484C504.237 129.454 500.212 125.157 497.324 119.594C494.459 114.007 493.027 107.378 493.027 99.7074C493.027 93.8125 493.879 88.5568 495.584 83.9403C497.312 79.3002 499.727 75.3703 502.828 72.1506C505.929 68.9309 509.54 66.4806 513.659 64.7997C517.778 63.1188 522.241 62.2784 527.047 62.2784C531.166 62.2784 535.001 62.8821 538.553 64.0895C542.104 65.2732 545.252 66.9541 547.999 69.1321C550.768 71.3101 553.029 73.9025 554.781 76.9091C556.533 79.892 557.658 83.1828 558.155 86.7812H542.53ZM594.74 137.065C589.224 137.065 584.454 135.893 580.429 133.55C576.428 131.182 573.339 127.892 571.161 123.678C568.983 119.44 567.894 114.527 567.894 108.94C567.894 103.306 568.983 98.3816 571.161 94.1676C573.339 89.9299 576.428 86.6392 580.429 84.2955C584.454 81.928 589.224 80.7443 594.74 80.7443C600.257 80.7443 605.015 81.928 609.016 84.2955C613.041 86.6392 616.142 89.9299 618.32 94.1676C620.498 98.3816 621.587 103.306 621.587 108.94C621.587 114.527 620.498 119.44 618.32 123.678C616.142 127.892 613.041 131.182 609.016 133.55C605.015 135.893 600.257 137.065 594.74 137.065ZM594.811 125.347C597.321 125.347 599.416 124.636 601.097 123.216C602.778 121.772 604.044 119.807 604.897 117.321C605.773 114.835 606.211 112.006 606.211 108.834C606.211 105.661 605.773 102.832 604.897 100.347C604.044 97.8608 602.778 95.8958 601.097 94.4517C599.416 93.0076 597.321 92.2855 594.811 92.2855C592.278 92.2855 590.148 93.0076 588.419 94.4517C586.715 95.8958 585.425 97.8608 584.549 100.347C583.696 102.832 583.27 105.661 583.27 108.834C583.27 112.006 583.696 114.835 584.549 117.321C585.425 119.807 586.715 121.772 588.419 123.216C590.148 124.636 592.278 125.347 594.811 125.347Z" fill="#2B6CEE"/>
<path d="M131.25 150H68.75V156.25C68.75 157.907 68.0915 159.497 66.9194 160.669C65.7473 161.841 64.1576 162.5 62.5 162.5H50C48.3424 162.5 46.7527 161.841 45.5806 160.669C44.4085 159.497 43.75 157.907 43.75 156.25V100H37.5V75H43.75V56.25C43.75 52.9348 45.0669 49.7554 47.4112 47.4112C49.7554 45.0669 52.9348 43.75 56.25 43.75H143.75C147.065 43.75 150.244 45.0669 152.589 47.4112C154.933 49.7554 156.25 52.9348 156.25 56.25V75H162.5V100H156.25V156.25C156.25 157.907 155.591 159.497 154.419 160.669C153.247 161.841 151.657 162.5 150 162.5H137.5C135.843 162.5 134.253 161.841 133.081 160.669C131.909 159.497 131.25 157.907 131.25 156.25V150ZM56.25 56.25V100H143.75V56.25H56.25ZM71.875 137.5C74.3614 137.5 76.746 136.512 78.5041 134.754C80.2623 132.996 81.25 130.611 81.25 128.125C81.25 125.639 80.2623 123.254 78.5041 121.496C76.746 119.737 74.3614 118.75 71.875 118.75C69.3886 118.75 67.004 119.737 65.2459 121.496C63.4878 123.254 62.5 125.639 62.5 128.125C62.5 130.611 63.4878 132.996 65.2459 134.754C67.004 136.512 69.3886 137.5 71.875 137.5ZM128.125 137.5C130.611 137.5 132.996 136.512 134.754 134.754C136.512 132.996 137.5 130.611 137.5 128.125C137.5 125.639 136.512 123.254 134.754 121.496C132.996 119.737 130.611 118.75 128.125 118.75C125.639 118.75 123.254 119.737 121.496 121.496C119.737 123.254 118.75 125.639 118.75 128.125C118.75 130.611 119.737 132.996 121.496 134.754C123.254 136.512 125.639 137.5 128.125 137.5Z" fill="white"/>
</svg>
